<svg xmlns="http://www.w3.org/2000/svg" viewBox="0 0 800 500" fill="none">
  <!-- Sky gradient background -->
  <defs>
    <linearGradient id="skyGradient" x1="0%" y1="0%" x2="0%" y2="100%">
      <stop offset="0%" style="stop-color:#1e293b;stop-opacity:0.9" />
      <stop offset="100%" style="stop-color:#475569;stop-opacity:0.3" />
    </linearGradient>
    <linearGradient id="moonGradient" x1="0%" y1="0%" x2="100%" y2="100%">
      <stop offset="0%" style="stop-color:#fbbf24;stop-opacity:0.9" />
      <stop offset="100%" style="stop-color:#f59e0b;stop-opacity:0.7" />
    </linearGradient>
    <linearGradient id="womanGradient" x1="0%" y1="0%" x2="100%" y2="100%">
      <stop offset="0%" style="stop-color:#64748b;stop-opacity:1" />
      <stop offset="100%" style="stop-color:#334155;stop-opacity:1" />
    </linearGradient>
  </defs>
  
  <!-- Sky background -->
  <rect width="800" height="500" fill="url(#skyGradient)"/>
  
  <!-- Stars -->
  <circle cx="150" cy="80" r="1.5" fill="#fbbf24" opacity="0.8"/>
  <circle cx="280" cy="120" r="1" fill="#fbbf24" opacity="0.6"/>
  <circle cx="650" cy="90" r="1.8" fill="#fbbf24" opacity="0.9"/>
  <circle cx="720" cy="140" r="1" fill="#fbbf24" opacity="0.7"/>
  <circle cx="100" cy="160" r="0.8" fill="#fbbf24" opacity="0.5"/>
  <circle cx="750" cy="200" r="1.2" fill="#fbbf24" opacity="0.6"/>
  
  <!-- Moon (crescent) -->
  <g id="moon">
    <defs>
      <mask id="crescentMask">
        <rect width="800" height="500" fill="black"/>
        <circle cx="600" cy="120" r="50" fill="white"/>
        <circle cx="616" cy="116" r="50" fill="black"/>
      </mask>
    </defs>
    <circle cx="600" cy="120" r="50" fill="#e5e7eb" mask="url(#crescentMask)"/>
    <circle cx="600" cy="120" r="52" fill="none" stroke="#94a3b8" stroke-opacity="0.4" stroke-width="1.5"/>
  </g>
  <!-- Moon craters -->
  <circle cx="590" cy="110" r="8" stroke="#d97706" fill="none" stroke-width="0.8" opacity="0.7"/>
  <circle cx="610" cy="125" r="5" stroke="#d97706" fill="none" stroke-width="0.8" opacity="0.6"/>
  <circle cx="595" cy="135" r="3" stroke="#d97706" fill="none" stroke-width="0.8" opacity="0.5"/>
  
  <!-- Ground line -->
  <line x1="0" y1="420" x2="800" y2="420" stroke="#475569" stroke-width="2" opacity="0.8"/>
  
  <!-- Moonlight beam -->
  
  
  <!-- Woman sitting (cartoon style) -->
  <g id="woman" transform="translate(0,0)">
    <!-- Woman body with realistic proportions -->
    <g transform="translate(0, -8)">
      <!-- Head (filled) -->
      <circle cx="195" cy="340" r="14" fill="#fdbcb4" stroke="#d97706" stroke-width="1.5"/>
      
      <!-- Hair (long, flowing) -->
      <path d="M182 335 Q175 330 172 340 Q170 350 175 360 Q180 370 185 375 Q190 378 195 375 Q205 372 210 365 Q215 360 210 350 Q208 340 200 335 Q195 330 185 332" 
            fill="#8b4513" stroke="#654321" stroke-width="1"/>
      
      <!-- Face features -->
      <!-- Eyes -->
      <circle cx="190" cy="338" r="1.5" fill="#2d3748"/>
      <circle cx="200" cy="338" r="1.5" fill="#2d3748"/>
      <!-- Nose -->
      <path d="M195 342 Q196 344 195 345" stroke="#d97706" stroke-width="1" fill="none"/>
      <!-- Mouth (slight smile) -->
      <path d="M192 348 Q195 350 198 348" stroke="#d97706" stroke-width="1.5" fill="none" stroke-linecap="round"/>
      
      <!-- Neck -->
      <rect x="192" y="354" width="6" height="8" fill="#fdbcb4" stroke="#d97706" stroke-width="1"/>
      
      <!-- Torso (realistic shape) -->
      <path d="M180 362 Q175 365 175 375 Q175 390 180 400 Q185 405 195 405 Q205 405 210 400 Q215 390 215 375 Q215 365 210 362 Z" 
            fill="#4a5568" stroke="#2d3748" stroke-width="1.5"/>
      
      <!-- Left arm -->
      <path d="M180 370 Q170 375 165 385 Q162 395 165 405" 
            stroke="#fdbcb4" stroke-width="6" fill="none" stroke-linecap="round"/>
      <!-- Left hand -->
      <circle cx="165" cy="405" r="4" fill="#fdbcb4" stroke="#d97706" stroke-width="1"/>
      
      <!-- Right arm -->
      <path d="M210 370 Q220 375 225 385 Q228 395 225 405" 
            stroke="#fdbcb4" stroke-width="6" fill="none" stroke-linecap="round"/>
      <!-- Right hand -->
      <circle cx="225" cy="405" r="4" fill="#fdbcb4" stroke="#d97706" stroke-width="1"/>
      
      <!-- Legs (sitting position) -->
      <path d="M185 405 Q180 415 175 425 Q172 430 175 435" 
            stroke="#4a5568" stroke-width="8" fill="none" stroke-linecap="round"/>
      <path d="M205 405 Q210 415 215 425 Q218 430 215 435" 
            stroke="#4a5568" stroke-width="8" fill="none" stroke-linecap="round"/>
      
      <!-- Feet -->
      <ellipse cx="175" cy="438" rx="6" ry="3" fill="#2d3748"/>
      <ellipse cx="215" cy="438" rx="6" ry="3" fill="#2d3748"/>
    </g>
  </g>
  
  <!-- Cat sitting nearby (bigger) -->
  <g transform="translate(280, 385) scale(1.4)">
    <!-- Cat body -->
    <ellipse cx="0" cy="10" rx="18" ry="10" fill="#374151" stroke="#1f2937" stroke-width="1"/>
    
    <!-- Cat head -->
    <circle cx="-8" cy="5" r="7.5" fill="#374151" stroke="#1f2937" stroke-width="1"/>
    
    <!-- Cat ears -->
    <path d="M -14 0 L -12 -3 L -10 0" fill="#374151" stroke="#1f2937" stroke-width="1"/>
    <path d="M -6 0 L -4 -3 L -2 0" fill="#374151" stroke="#1f2937" stroke-width="1"/>
    
    <!-- Cat tail (curved) -->
    <path d="M 12 8 Q 20 5 25 0 Q 28 -3 30 -8" 
          stroke="#374151" 
          stroke-width="3" 
          fill="none" 
          stroke-linecap="round"/>
    
    <!-- Cat eyes (glowing) -->
    <circle cx="-10" cy="3" r="0.8" fill="#fbbf24" opacity="0.8"/>
    <circle cx="-6" cy="3" r="0.8" fill="#fbbf24" opacity="0.8"/>
    
    <!-- Cat shadow -->
    <ellipse cx="0" cy="20" rx="18" ry="2" fill="#1e293b" opacity="0.4"/>
  </g>
  
  <!-- Grass details -->
  <g stroke="#475569" stroke-width="1.5" opacity="0.7">
    <path d="M120 420 Q122 410 124 420"/>
    <path d="M125 420 Q127 408 129 420"/>
    <path d="M350 420 Q352 412 354 420"/>
    <path d="M355 420 Q357 409 359 420"/>
    <path d="M480 420 Q482 413 484 420"/>
    <path d="M485 420 Q487 410 489 420"/>
    <path d="M520 420 Q522 414 524 420"/>
    <path d="M680 420 Q682 411 684 420"/>
  </g>
  
  <!-- Small flowers -->
  <g opacity="0.6">
    <circle cx="140" cy="418" r="1" fill="#fbbf24"/>
    <circle cx="370" cy="418" r="1" fill="#fbbf24"/>
    <circle cx="500" cy="418" r="1" fill="#fbbf24"/>
  </g>
  
  <!-- Atmospheric mist -->
  <path d="M 0 380 Q 200 370 400 375 Q 600 380 800 375 L 800 420 L 0 420 Z" 
        fill="#475569" 
        opacity="0.2"/>
</svg>