<svg xmlns="http://www.w3.org/2000/svg" viewBox="0 0 700 500" fill="none" stroke="#7a869a" stroke-width="0.8">
  <defs>
    <linearGradient id="roomGradient" x1="0%" y1="0%" x2="100%" y2="100%">
      <stop offset="0%" style="stop-color:#f8fafc;stop-opacity:0.3" />
      <stop offset="100%" style="stop-color:#e2e8f0;stop-opacity:0.1" />
    </linearGradient>
    <linearGradient id="windowLight" x1="0%" y1="0%" x2="100%" y2="0%">
      <stop offset="0%" style="stop-color:#f1f5f9;stop-opacity:0.8" />
      <stop offset="100%" style="stop-color:#e2e8f0;stop-opacity:0.3" />
    </linearGradient>
  </defs>
  
  <!-- Room floor -->
  <rect x="0" y="400" width="700" height="100" fill="url(#roomGradient)"/>
  
  <!-- Back wall -->
  <rect x="0" y="0" width="700" height="400" fill="#f8fafc" opacity="0.4"/>
  
  <!-- Window -->
  <rect x="480" y="80" width="180" height="240" fill="url(#windowLight)" stroke="#94a3b8" stroke-width="1"/>
  <!-- Window frame cross -->
  <line x1="570" y1="80" x2="570" y2="320" stroke="#94a3b8" stroke-width="0.8"/>
  <line x1="480" y1="200" x2="660" y2="200" stroke="#94a3b8" stroke-width="0.8"/>
  
  <!-- Window light on floor -->
  <polygon points="480,320 660,320 600,400 420,400" fill="#f1f5f9" opacity="0.3"/>
  
  <!-- Single chair -->
  <g stroke="#7a869a" stroke-width="0.8" fill="#e2e8f0">
    <!-- Chair seat -->
    <rect x="150" y="320" width="60" height="8" rx="2" stroke="#94a3b8"/>
    <!-- Chair back -->
    <rect x="150" y="250" width="60" height="8" rx="2" stroke="#94a3b8"/>
    <!-- Chair legs -->
    <rect x="155" y="328" width="6" height="72" stroke="#94a3b8"/>
    <rect x="199" y="328" width="6" height="72" stroke="#94a3b8"/>
    <rect x="155" y="258" width="6" height="62" stroke="#94a3b8"/>
    <rect x="199" y="258" width="6" height="62" stroke="#94a3b8"/>
    <!-- Support bars -->
    <line x1="155" y1="270" x2="205" y2="270" stroke="#94a3b8" stroke-width="0.6"/>
    <line x1="161" y1="350" x2="205" y2="350" stroke="#94a3b8" stroke-width="0.6"/>
  </g>
  
  <!-- Chair shadow -->
  <ellipse cx="180" cy="405" rx="40" ry="8" fill="#94a3b8" opacity="0.3"/>
  
  <!-- Small side table -->
  <g stroke="#94a3b8" stroke-width="0.8" fill="#e2e8f0">
    <rect x="350" y="340" width="40" height="6" rx="2"/>
    <rect x="355" y="346" width="6" height="54"/>
    <rect x="379" y="346" width="6" height="54"/>
  </g>
  
  <!-- Book on table -->
  <rect x="355" y="335" width="12" height="8" fill="#cbd5e1" stroke="#94a3b8" stroke-width="0.4"/>
  
  <!-- Coffee cup -->
  <g stroke="#94a3b8" stroke-width="0.6" fill="none">
    <ellipse cx="375" cy="338" rx="4" ry="3"/>
    <path d="M379 338 Q382 338 382 341 Q382 344 379 344"/>
  </g>
  
  <!-- Wall clock -->
  <g stroke="#94a3b8" stroke-width="0.6" fill="none">
    <circle cx="300" cy="150" r="25"/>
    <line x1="300" y1="150" x2="300" y2="135" stroke-width="1"/>
    <line x1="300" y1="150" x2="310" y2="145" stroke-width="0.8"/>
    <!-- Clock numbers -->
    <circle cx="300" cy="125" r="1" fill="#94a3b8"/>
    <circle cx="325" cy="150" r="1" fill="#94a3b8"/>
    <circle cx="300" cy="175" r="1" fill="#94a3b8"/>
    <circle cx="275" cy="150" r="1" fill="#94a3b8"/>
  </g>
  
  <!-- Picture frame (empty) -->
  <rect x="80" y="120" width="80" height="60" fill="none" stroke="#94a3b8" stroke-width="0.8"/>
  <rect x="85" y="125" width="70" height="50" fill="#f8fafc" opacity="0.6"/>
  
  <!-- Dust particles in window light -->
  <g fill="#94a3b8" opacity="0.2">
    <circle cx="520" cy="180" r="0.5"/>
    <circle cx="580" cy="220" r="0.8"/>
    <circle cx="540" cy="160" r="0.6"/>
    <circle cx="600" cy="190" r="0.4"/>
    <circle cx="560" cy="240" r="0.7"/>
  </g>
  
  <!-- Subtle loneliness indicators -->
  <g stroke="#9fb4d3" stroke-width="0.3" opacity="0.4">
    <!-- Empty space emphasis lines -->
    <path d="M50 300 Q100 290 150 300" stroke-dasharray="1,3"/>
    <path d="M250 280 Q300 270 350 280" stroke-dasharray="1,3"/>
  </g>
  
  <!-- Floor texture lines -->
  <g stroke="#94a3b8" stroke-width="0.2" opacity="0.3">
    <line x1="0" y1="420" x2="700" y2="420"/>
    <line x1="0" y1="440" x2="700" y2="440"/>
    <line x1="0" y1="460" x2="700" y2="460"/>
    <line x1="0" y1="480" x2="700" y2="480"/>
  </g>
</svg>
