<svg xmlns="http://www.w3.org/2000/svg" viewBox="0 0 700 500" fill="none">
  <defs>
    <linearGradient id="roomGradient" x1="0%" y1="0%" x2="100%" y2="100%">
      <stop offset="0%" style="stop-color:#64748b;stop-opacity:0.3" />
      <stop offset="100%" style="stop-color:#475569;stop-opacity:0.1" />
    </linearGradient>
    <linearGradient id="windowLight" x1="0%" y1="0%" x2="100%" y2="0%">
      <stop offset="0%" style="stop-color:#fbbf24;stop-opacity:0.6" />
      <stop offset="100%" style="stop-color:#f59e0b;stop-opacity:0.3" />
    </linearGradient>
    <linearGradient id="wallGradient" x1="0%" y1="0%" x2="100%" y2="100%">
      <stop offset="0%" style="stop-color:#f1f5f9;stop-opacity:0.8" />
      <stop offset="100%" style="stop-color:#e2e8f0;stop-opacity:0.6" />
    </linearGradient>
    <linearGradient id="chairGradient" x1="0%" y1="0%" x2="100%" y2="100%">
      <stop offset="0%" style="stop-color:#a0785c;stop-opacity:1" />
      <stop offset="100%" style="stop-color:#92400e;stop-opacity:1" />
    </linearGradient>
  </defs>
  
  <!-- Room floor (wooden) -->
  <rect x="0" y="400" width="700" height="100" fill="url(#roomGradient)"/>
  
  <!-- Floor boards -->
  <g stroke="#475569" stroke-width="1" opacity="0.4">
    <line x1="0" y1="420" x2="700" y2="420"/>
    <line x1="0" y1="440" x2="700" y2="440"/>
    <line x1="0" y1="460" x2="700" y2="460"/>
    <line x1="0" y1="480" x2="700" y2="480"/>
  </g>
  
  <!-- Back wall -->
  <rect x="0" y="0" width="700" height="400" fill="url(#wallGradient)"/>
  
  <!-- Window with warm light -->
  <rect x="480" y="80" width="180" height="240" fill="url(#windowLight)" stroke="#a0785c" stroke-width="3"/>
  <!-- Window frame cross -->
  <line x1="570" y1="80" x2="570" y2="320" stroke="#a0785c" stroke-width="2"/>
  <line x1="480" y1="200" x2="660" y2="200" stroke="#a0785c" stroke-width="2"/>
  
  <!-- Window curtains (partially drawn) -->
  <path d="M 480 80 Q 485 90 490 80 L 490 320 Q 485 310 480 320 Z" 
        fill="#e2e8f0" 
        stroke="#cbd5e1" 
        stroke-width="1" 
        opacity="0.7"/>
  <path d="M 650 80 Q 655 90 660 80 L 660 320 Q 655 310 650 320 Z" 
        fill="#e2e8f0" 
        stroke="#cbd5e1" 
        stroke-width="1" 
        opacity="0.7"/>
  
  <!-- Warm window light on floor -->
  <polygon points="480,320 660,320 600,400 420,400" fill="#fbbf24" opacity="0.2"/>
  
  <!-- Single armchair (more detailed) -->
  <g>
    <!-- Chair seat -->
    <path d="M 140 320 Q 150 315 180 315 Q 210 315 220 320 L 220 328 Q 210 333 180 333 Q 150 333 140 328 Z" 
          fill="url(#chairGradient)" 
          stroke="#78350f" 
          stroke-width="2"/>
    
    <!-- Chair back -->
    <path d="M 145 250 Q 155 245 180 245 Q 205 245 215 250 L 215 320 Q 205 315 180 315 Q 155 315 145 320 Z" 
          fill="url(#chairGradient)" 
          stroke="#78350f" 
          stroke-width="2"/>
    
    <!-- Chair arms -->
    <rect x="130" y="300" width="20" height="25" rx="3" fill="url(#chairGradient)" stroke="#78350f" stroke-width="2"/>
    <rect x="210" y="300" width="20" height="25" rx="3" fill="url(#chairGradient)" stroke="#78350f" stroke-width="2"/>
    
    <!-- Chair legs -->
    <rect x="145" y="333" width="8" height="67" fill="url(#chairGradient)" stroke="#78350f" stroke-width="2"/>
    <rect x="207" y="333" width="8" height="67" fill="url(#chairGradient)" stroke="#78350f" stroke-width="2"/>
    <rect x="135" y="325" width="8" height="75" fill="url(#chairGradient)" stroke="#78350f" stroke-width="2"/>
    <rect x="217" y="325" width="8" height="75" fill="url(#chairGradient)" stroke="#78350f" stroke-width="2"/>
    
    <!-- Chair cushion details -->
    <ellipse cx="180" cy="324" rx="25" ry="8" fill="#92400e" opacity="0.6"/>
    <ellipse cx="180" cy="280" rx="20" ry="6" fill="#92400e" opacity="0.6"/>
  </g>
  
  <!-- Chair shadow -->
  <ellipse cx="180" cy="408" rx="50" ry="12" fill="#334155" opacity="0.4"/>
  
  <!-- Side table (wooden) -->
  <g>
    <ellipse cx="370" cy="340" rx="25" ry="18" fill="url(#chairGradient)" stroke="#78350f" stroke-width="2"/>
    <rect x="350" y="346" width="8" height="54" fill="url(#chairGradient)" stroke="#78350f" stroke-width="2"/>
    <rect x="382" y="346" width="8" height="54" fill="url(#chairGradient)" stroke="#78350f" stroke-width="2"/>
    <rect x="365" y="346" width="8" height="54" fill="url(#chairGradient)" stroke="#78350f" stroke-width="2"/>
  </g>
  
  <!-- Items on table -->
  <!-- Book -->
  <rect x="355" y="332" width="15" height="10" rx="1" fill="#475569" stroke="#334155" stroke-width="1"/>
  <rect x="356" y="333" width="13" height="8" fill="#64748b"/>
  
  <!-- Coffee cup with steam -->
  <g>
    <ellipse cx="378" cy="335" rx="5" ry="4" fill="#78350f" stroke="#92400e" stroke-width="1"/>
    <ellipse cx="378" cy="333" rx="4" ry="3" fill="#a0785c"/>
    <!-- Handle -->
    <path d="M383 335 Q386 335 386 338 Q386 341 383 341" 
          stroke="#78350f" 
          stroke-width="1.5" 
          fill="none"/>
    <!-- Steam -->
    <g stroke="#64748b" stroke-width="0.8" opacity="0.6">
      <path d="M378 330 Q380 325 378 320" fill="none"/>
      <path d="M380 328 Q382 323 380 318" fill="none"/>
    </g>
  </g>
  
  <!-- Wall clock -->
  <g>
    <circle cx="300" cy="150" r="30" fill="#e2e8f0" stroke="#a0785c" stroke-width="3"/>
    <circle cx="300" cy="150" r="25" fill="#f8fafc" stroke="#cbd5e1" stroke-width="1"/>
    
    <!-- Clock hands (showing 3:15) -->
    <line x1="300" y1="150" x2="300" y2="130" stroke="#334155" stroke-width="2"/>
    <line x1="300" y1="150" x2="318" y2="150" stroke="#334155" stroke-width="1.5"/>
    
    <!-- Clock numbers -->
    <circle cx="300" cy="125" r="1.5" fill="#334155"/>
    <circle cx="325" cy="150" r="1.5" fill="#334155"/>
    <circle cx="300" cy="175" r="1.5" fill="#334155"/>
    <circle cx="275" cy="150" r="1.5" fill="#334155"/>
    
    <!-- Center dot -->
    <circle cx="300" cy="150" r="2" fill="#334155"/>
  </g>
  
  <!-- Picture frame with landscape -->
  <g>
    <rect x="80" y="120" width="80" height="60" fill="#a0785c" stroke="#92400e" stroke-width="2"/>
    <rect x="85" y="125" width="70" height="50" fill="#e2e8f0"/>
    
    <!-- Simple landscape in frame -->
    <path d="M85 150 Q100 140 120 150 Q140 140 155 150 L155 175 L85 175 Z" fill="#15803d" opacity="0.6"/>
    <circle cx="130" cy="140" r="8" fill="#fbbf24" opacity="0.7"/>
  </g>
  
  <!-- Bookshelf -->
  <g stroke="#a0785c" stroke-width="2" fill="url(#chairGradient)">
    <rect x="50" y="200" width="80" height="15"/>
    <rect x="50" y="230" width="80" height="15"/>
    <rect x="50" y="260" width="80" height="15"/>
    <rect x="45" y="195" width="6" height="85"/>
    <rect x="124" y="195" width="6" height="85"/>
    
    <!-- Books on shelves -->
    <rect x="55" y="202" width="8" height="11" fill="#dc2626"/>
    <rect x="65" y="202" width="6" height="11" fill="#1d4ed8"/>
    <rect x="73" y="202" width="10" height="11" fill="#059669"/>
    <rect x="85" y="202" width="7" height="11" fill="#7c2d12"/>
    
    <rect x="55" y="232" width="12" height="11" fill="#7c2d12"/>
    <rect x="69" y="232" width="8" height="11" fill="#dc2626"/>
    <rect x="79" y="232" width="6" height="11" fill="#1d4ed8"/>
  </g>
  
  <!-- Warm dust particles in sunlight -->
  <g fill="#fbbf24" opacity="0.4">
    <circle cx="520" cy="180" r="1"/>
    <circle cx="580" cy="220" r="1.2"/>
    <circle cx="540" cy="160" r="0.8"/>
    <circle cx="600" cy="190" r="0.6"/>
    <circle cx="560" cy="240" r="1"/>
    <circle cx="510" cy="250" r="0.9"/>
  </g>
  
  <!-- Subtle room atmosphere -->
  <g stroke="#a0785c" stroke-width="0.8" opacity="0.2">
    <circle cx="250" cy="300" r="1.5" fill="#a0785c" opacity="0.1"/>
    <circle cx="400" cy="280" r="1" fill="#a0785c" opacity="0.1"/>
    <circle cx="150" cy="350" r="1.2" fill="#a0785c" opacity="0.1"/>
  </g>
  
  <!-- Small plant on windowsill -->
  <g transform="translate(530, 310)">
    <rect x="-5" y="5" width="10" height="8" fill="#78350f" stroke="#92400e" stroke-width="1"/>
    <path d="M-3 5 Q0 0 3 5" fill="#15803d" stroke="#166534" stroke-width="1"/>
    <path d="M-5 3 Q0 -2 5 3" fill="#15803d" stroke="#166534" stroke-width="1"/>
  </g>
</svg>