<svg xmlns="http://www.w3.org/2000/svg" viewBox="0 0 800 500" fill="none" stroke="#7a869a" stroke-width="0.8">
  <!-- Sky gradient background -->
  <defs>
    <linearGradient id="skyGradient" x1="0%" y1="0%" x2="0%" y2="100%">
      <stop offset="0%" style="stop-color:#f8fafc;stop-opacity:0.3" />
      <stop offset="100%" style="stop-color:#cbd5e1;stop-opacity:0.1" />
    </linearGradient>
    <linearGradient id="moonGradient" x1="0%" y1="0%" x2="100%" y2="100%">
      <stop offset="0%" style="stop-color:#f1f5f9;stop-opacity:0.8" />
      <stop offset="100%" style="stop-color:#e2e8f0;stop-opacity:0.6" />
    </linearGradient>
  </defs>
  
  <!-- Sky background -->
  <rect width="800" height="500" fill="url(#skyGradient)"/>
  
  <!-- Stars -->
  <circle cx="150" cy="80" r="1" fill="#94a3b8" opacity="0.6"/>
  <circle cx="280" cy="120" r="0.8" fill="#94a3b8" opacity="0.4"/>
  <circle cx="650" cy="90" r="1.2" fill="#94a3b8" opacity="0.7"/>
  <circle cx="720" cy="140" r="0.6" fill="#94a3b8" opacity="0.5"/>
  
  <!-- Moon -->
  <circle cx="600" cy="120" r="45" stroke="#9fb4d3" fill="url(#moonGradient)" stroke-width="0.6"/>
  <!-- Moon craters -->
  <circle cx="590" cy="110" r="8" stroke="#94a3b8" fill="none" stroke-width="0.4" opacity="0.6"/>
  <circle cx="610" cy="125" r="5" stroke="#94a3b8" fill="none" stroke-width="0.4" opacity="0.4"/>
  <circle cx="595" cy="135" r="3" stroke="#94a3b8" fill="none" stroke-width="0.4" opacity="0.5"/>
  
  <!-- Ground line -->
  <line x1="0" y1="420" x2="800" y2="420" stroke="#94a3b8" stroke-width="0.6" opacity="0.7"/>
  
  <!-- Sitting figure -->
  <g stroke="#7a869a" stroke-width="0.8" fill="none">
    <!-- Head -->
    <circle cx="200" cy="350" r="12"/>
    
    <!-- Body -->
    <line x1="200" y1="362" x2="200" y2="405"/>
    
    <!-- Arms (hanging down) -->
    <path d="M200 375 Q185 385 180 400"/>
    <path d="M200 375 Q215 385 220 400"/>
    
    <!-- Legs (sitting) -->
    <path d="M200 405 Q190 415 175 420"/>
    <path d="M200 405 Q210 415 225 420"/>
    
    <!-- Shadow -->
    <ellipse cx="200" cy="422" rx="25" ry="3" fill="#94a3b8" opacity="0.3"/>
  </g>
  
  <!-- Grass details -->
  <g stroke="#94a3b8" stroke-width="0.4" opacity="0.6">
    <path d="M120 420 Q122 415 124 420"/>
    <path d="M125 420 Q127 413 129 420"/>
    <path d="M300 420 Q302 416 304 420"/>
    <path d="M305 420 Q307 414 309 420"/>
    <path d="M480 420 Q482 417 484 420"/>
    <path d="M485 420 Q487 415 489 420"/>
  </g>
  
  <!-- Moonlight path -->
  <path d="M600 165 Q400 280 200 350" stroke="#9fb4d3" stroke-width="0.3" opacity="0.4" fill="none" stroke-dasharray="2,3"/>
</svg>