<svg xmlns="http://www.w3.org/2000/svg" viewBox="0 0 500 600" fill="none" stroke="#7a869a" stroke-width="0.8">
  <defs>
    <linearGradient id="windowGradient" x1="0%" y1="0%" x2="100%" y2="100%">
      <stop offset="0%" style="stop-color:#f8fafc;stop-opacity:0.4" />
      <stop offset="100%" style="stop-color:#e2e8f0;stop-opacity:0.2" />
    </linearGradient>
    <pattern id="rainPattern" patternUnits="userSpaceOnUse" width="20" height="30">
      <line x1="10" y1="0" x2="8" y2="30" stroke="#94a3b8" stroke-width="0.3" opacity="0.6"/>
    </pattern>
  </defs>
  
  <!-- Window frame -->
  <rect x="80" y="100" width="340" height="400" fill="url(#windowGradient)" stroke="#94a3b8" stroke-width="1.2"/>
  
  <!-- Window cross bars -->
  <line x1="250" y1="100" x2="250" y2="500" stroke="#94a3b8" stroke-width="1"/>
  <line x1="80" y1="300" x2="420" y2="300" stroke="#94a3b8" stroke-width="1"/>
  
  <!-- Rain outside -->
  <rect x="80" y="100" width="340" height="400" fill="url(#rainPattern)" opacity="0.7"/>
  
  <!-- Additional rain lines for depth -->
  <g stroke="#94a3b8" stroke-width="0.4" opacity="0.4">
    <line x1="90" y1="110" x2="85" y2="150"/>
    <line x1="150" y1="120" x2="145" y2="160"/>
    <line x1="200" y1="115" x2="195" y2="155"/>
    <line x1="300" y1="125" x2="295" y2="165"/>
    <line x1="380" y1="130" x2="375" y2="170"/>
    <line x1="120" y1="340" x2="115" y2="380"/>
    <line x1="280" y1="350" x2="275" y2="390"/>
    <line x1="360" y1="360" x2="355" y2="400"/>
  </g>
  
  <!-- Silhouette at window -->
  <g stroke="#7a869a" stroke-width="0.8" fill="none">
    <!-- Head profile -->
    <path d="M180 250 Q175 245 175 255 Q175 265 180 260 Q185 255 180 250"/>
    
    <!-- Neck and shoulder -->
    <line x1="180" y1="260" x2="180" y2="275"/>
    <path d="M165 275 Q180 270 195 275"/>
    
    <!-- Arm resting on windowsill -->
    <path d="M165 275 Q160 285 155 300"/>
    <line x1="155" y1="300" x2="170" y2="300"/>
    
    <!-- Hand on glass -->
    <circle cx="200" cy="280" r="4" opacity="0.7"/>
    <path d="M200 280 L205 275" stroke-width="0.6"/>
    <path d="M200 280 L205 285" stroke-width="0.6"/>
    
    <!-- Reflection of hand on glass -->
    <circle cx="202" cy="282" r="4" opacity="0.3" stroke-width="0.4"/>
  </g>
  
  <!-- Window condensation -->
  <g stroke="#94a3b8" stroke-width="0.3" opacity="0.4">
    <path d="M180 320 Q185 325 190 320" fill="none"/>
    <path d="M280 250 Q285 255 290 250" fill="none"/>
    <path d="M350 380 Q355 385 360 380" fill="none"/>
  </g>
  
  <!-- Water droplets on glass -->
  <g fill="#94a3b8" opacity="0.3">
    <ellipse cx="130" cy="180" rx="2" ry="4"/>
    <ellipse cx="320" cy="220" rx="1.5" ry="3"/>
    <ellipse cx="380" cy="160" rx="1" ry="2"/>
    <ellipse cx="180" cy="380" rx="2.5" ry="5"/>
    <ellipse cx="290" cy="420" rx="1.8" ry="3.5"/>
  </g>
  
  <!-- Window sill -->
  <rect x="75" y="500" width="350" height="8" fill="#e2e8f0" stroke="#94a3b8" stroke-width="0.6"/>
  
  <!-- Melancholy atmosphere lines -->
  <g stroke="#9fb4d3" stroke-width="0.2" opacity="0.3">
    <path d="M120 140 Q140 130 160 140" stroke-dasharray="2,3"/>
    <path d="M300 180 Q320 170 340 180" stroke-dasharray="2,3"/>
  </g>
</svg>
